<?xml version="1.0" encoding="UTF-8"?>
<svg version="1.1" xmlns="http://www.w3.org/2000/svg" width="512" height="512">
<path d="M0 0 C1.54155762 0.32943604 1.54155762 0.32943604 3.11425781 0.66552734 C30.89320976 6.7623989 55.69416663 17.47340781 80.68847656 30.7824707 C82.77930746 31.88375647 84.88225826 32.95163267 87 34 C92.50865031 36.75432516 98.64826417 40.64826417 103 45 C103.66 45.33 104.32 45.66 105 46 C105.66 46.66 106.32 47.32 107 48 C107.66 48.33 108.32 48.66 109 49 C109.474375 49.495 109.94875 49.99 110.4375 50.5 C112.0377353 52.25083992 112.0377353 52.25083992 115 53 C115.4640625 53.99 115.4640625 53.99 115.9375 55 C116.288125 55.66 116.63875 56.32 117 57 C117.639375 57.144375 118.27875 57.28875 118.9375 57.4375 C121.99753477 58.27205494 122.44137329 60.31916205 124 63 C126.28384246 65.04960221 128.38057714 66.69028857 131.125 68.0625 C133.25302727 69.12651363 134.50560053 70.14979113 136 72 C136.144375 72.66 136.28875 73.32 136.4375 74 C137.22478847 76.79924789 138.60559929 77.38216168 141 79 C145.12071883 82.13174631 147.25213268 84.15975203 149 89 C149.99 89.33 150.98 89.66 152 90 C152.33 90.99 152.66 91.98 153 93 C153.66 93.33 154.32 93.66 155 94 C155.33 94.99 155.66 95.98 156 97 C156.66 97.33 157.32 97.66 158 98 C158.33 98.99 158.66 99.98 159 101 C159.56589844 101.54785156 160.13179688 102.09570312 160.71484375 102.66015625 C163.8935739 105.91495858 166.15296683 109.59259197 168.5625 113.4375 C169.08046143 114.26282227 169.59842285 115.08814453 170.13208008 115.93847656 C174.03890856 122.25811966 177.69431873 128.69323655 181.1875 135.25 C181.65679932 136.11810303 182.12609863 136.98620605 182.60961914 137.88061523 C185.10474314 142.66739819 186.62780228 146.59948403 187 152 C187.66 152 188.32 152 189 152 C189.4640625 153.6396875 189.4640625 153.6396875 189.9375 155.3125 C191.01858405 159.0644976 191.83088836 161.74633254 194 165 C197.58704213 174.4041515 200.4198662 184.04057363 202.8125 193.8125 C203.12247925 195.04492432 203.12247925 195.04492432 203.4387207 196.30224609 C206.3650976 208.733505 206.1936211 221.56574123 206.2734375 234.26953125 C206.28142302 235.48097589 206.28142302 235.48097589 206.28956985 236.71689415 C206.31610043 240.99802058 206.33553156 245.27911998 206.35009766 249.56030273 C206.36336196 253.04234514 206.39110449 256.52379115 206.43212891 260.00561523 C206.66073182 279.87563033 206.56061804 298.72659575 201 318 C200.74169403 318.90105469 200.48338806 319.80210937 200.21725464 320.73046875 C197.32316642 330.6820782 193.89702171 340.39539341 190 350 C189.34 350 188.68 350 188 350 C187.67 352.31 187.34 354.62 187 357 C186.34 357 185.68 357 185 357 C183.8439273 359.2034806 182.70015279 361.41203156 181.5625 363.625 C181.23701172 364.24246094 180.91152344 364.85992187 180.57617188 365.49609375 C179.11401991 368.36010275 178.02419254 370.84840643 177.515625 374.03515625 C176.85954309 377.80762722 175.185275 380.61597394 173.1875 383.8125 C172.79731689 384.44905518 172.40713379 385.08561035 172.00512695 385.74145508 C168.73022019 391.00258229 165.24459059 396.11400301 161.6875 401.1875 C161.18436279 401.90591064 160.68122559 402.62432129 160.1628418 403.36450195 C157.66433518 406.86991299 155.18374076 410.07266789 152 413 C150.17922549 414.68071493 149.09375269 415.79374409 148.0625 418.0625 C147 420 147 420 144.9375 421 C144.298125 421.33 143.65875 421.66 143 422 C142.86335938 422.60585938 142.72671875 423.21171875 142.5859375 423.8359375 C141.85234105 426.54535372 140.68813808 427.68005421 138.6875 429.625 C138.09324219 430.21539062 137.49898438 430.80578125 136.88671875 431.4140625 C135 433 135 433 132.8984375 434.02734375 C129.92380631 435.55138318 128.75573522 438.22480562 127 441 C124.6122449 443.88520408 124.6122449 443.88520408 122 444.375 C119.71588361 444.84547308 119.71588361 444.84547308 118.5 447.5 C117 450 117 450 114.9375 450.5625 C114.298125 450.706875 113.65875 450.85125 113 451 C112.67 451.66 112.34 452.32 112 453 C111 455 111 455 108.875 455.75 C108.25625 455.8325 107.6375 455.915 107 456 C107 456.66 107 457.32 107 458 C105.68 458.33 104.36 458.66 103 459 C103 459.66 103 460.32 103 461 C102.40517822 461.1235083 101.81035645 461.2470166 101.19750977 461.37426758 C97.68605966 462.37413944 94.91848993 464.64201642 91.9375 466.6875 C55.41789462 490.94871957 10.24599843 507.93703576 -33.93359375 508.23828125 C-35.0837648 508.246353 -36.23393585 508.25442474 -37.41896057 508.26274109 C-39.85554523 508.27653581 -42.29214883 508.28727846 -44.72875977 508.29516602 C-47.17087649 508.30658003 -49.61297043 508.32685919 -52.05493164 508.35668945 C-102.78802904 508.97467002 -154.22643487 493.70518334 -195.49609375 463.71484375 C-197.9549921 461.86214087 -197.9549921 461.86214087 -201 461 C-201.66 460.34 -202.32 459.68 -203 459 C-203.66 458.67 -204.32 458.34 -205 458 C-205.66 457.34 -206.32 456.68 -207 456 C-207.66 455.67 -208.32 455.34 -209 455 C-209.66 454.34 -210.32 453.68 -211 453 C-211.66 452.67 -212.32 452.34 -213 452 C-213.61875 451.360625 -214.2375 450.72125 -214.875 450.0625 C-216.83429822 447.93753859 -216.83429822 447.93753859 -219.125 447 C-221 446 -221 446 -221.875 444.1875 C-224.19614683 439.67415894 -228.55448746 437.1461095 -233 435 C-234.97353808 433.39193193 -235.88645918 432.58662758 -236.375 430.0625 C-237.51173481 426.31127513 -241.11070783 424.59286145 -244.25 422.5 C-246 421 -246 421 -246.5 418.9375 C-246.665 418.298125 -246.83 417.65875 -247 417 C-247.55816406 416.77054687 -248.11632812 416.54109375 -248.69140625 416.3046875 C-252.14315554 414.3539527 -254.13219884 411.32825387 -256.4375 408.1875 C-257.20779541 407.14625977 -257.20779541 407.14625977 -257.99365234 406.08398438 C-262.26741937 400.20352832 -266.25098948 394.14976723 -270.125 388 C-270.6811499 387.12883545 -271.2372998 386.2576709 -271.81030273 385.36010742 C-274.98225659 380.22125655 -276.73818751 375.8884583 -278 370 C-279.22727479 367.07074879 -279.22727479 367.07074879 -280.625 364.5 C-281.07101562 363.6440625 -281.51703125 362.788125 -281.9765625 361.90625 C-282.31429688 361.2771875 -282.65203125 360.648125 -283 360 C-283.66 360 -284.32 360 -285 360 C-285.12375 359.38125 -285.2475 358.7625 -285.375 358.125 C-285.87197356 355.80879168 -285.87197356 355.80879168 -288 354 C-293.15716913 343.33770459 -296.59306569 331.61131797 -299.8125 320.25 C-300.08989014 319.28312256 -300.36728027 318.31624512 -300.65307617 317.32006836 C-304.69973556 302.57489192 -306.47689421 288.36017164 -306.46875 273.12109375 C-306.47588749 271.45410419 -306.48359138 269.78711697 -306.49182129 268.12013245 C-306.50514279 264.65024979 -306.50689253 261.18059414 -306.50097656 257.71069336 C-306.49627341 254.20741368 -306.51007929 250.70504048 -306.54199219 247.2019043 C-306.72148685 227.26633835 -306.53327746 208.33730219 -301 189 C-300.7189592 188.00567963 -300.4379184 187.01135925 -300.14836121 185.98690796 C-298.52414045 180.29285835 -296.81435287 174.63634018 -295 169 C-294.34 169 -293.68 169 -293 169 C-293.061875 167.6696875 -293.061875 167.6696875 -293.125 166.3125 C-293.00102754 163.02722987 -292.38612096 160.94550705 -291 158 C-290.34 158 -289.68 158 -289 158 C-288.93554688 157.06800781 -288.87109375 156.13601562 -288.8046875 155.17578125 C-288.01829565 149.75131017 -285.51205013 145.06725791 -283.125 140.1875 C-282.63757324 139.18009766 -282.15014648 138.17269531 -281.64794922 137.13476562 C-266.0867429 105.54337145 -266.0867429 105.54337145 -259 102 C-258.505 100.515 -258.505 100.515 -258 99 C-257.34 98.67 -256.68 98.34 -256 98 C-255.505 96.515 -255.505 96.515 -255 95 C-254.34 94.67 -253.68 94.34 -253 94 C-252.71125 93.401875 -252.4225 92.80375 -252.125 92.1875 C-250.48495553 88.99852464 -247.98504389 86.90927128 -245.375 84.5 C-243.90529269 83.04932195 -243.90529269 83.04932195 -243.1171875 81.08984375 C-241.90607329 78.82429793 -240.73203261 77.67401751 -238.75 76.0625 C-238.13253906 75.55074219 -237.51507813 75.03898437 -236.87890625 74.51171875 C-235.68334069 73.54979802 -234.48327915 72.59341919 -233.27734375 71.64453125 C-230.31917121 69.28235416 -228.54815502 67.42805754 -227 64 C-223.72131148 60.17486339 -223.72131148 60.17486339 -220.9375 59.5 C-218.23232762 58.801891 -217.61118685 57.21538191 -216 55 C-214.66666667 54.33333333 -213.33333333 53.66666667 -212 53 C-211.67 52.01 -211.34 51.02 -211 50 C-208.9375 49.3125 -208.9375 49.3125 -207 49 C-207 48.34 -207 47.68 -207 47 C-205.68 46.67 -204.36 46.34 -203 46 C-203 45.34 -203 44.68 -203 44 C-201.68 43.67 -200.36 43.34 -199 43 C-199 42.34 -199 41.68 -199 41 C-198.01 40.67 -197.02 40.34 -196 40 C-193.47752519 38.85342054 -191.98384273 37.98384273 -190 36 C-188.68028499 35.30676517 -187.34476303 34.64329979 -186 34 C-184.49586996 33.17283066 -182.99618795 32.33754362 -181.5 31.49609375 C-154.15556855 16.24104404 -125.90682646 4.76365869 -95 -1 C-94.18966309 -1.16226074 -93.37932617 -1.32452148 -92.54443359 -1.49169922 C-63.10935431 -7.20192781 -29.23667698 -6.35141603 0 0 Z M-292 163 C-291 165 -291 165 -291 165 Z M192 165 C193 167 193 167 193 167 Z M194 170 C195 172 195 172 195 172 Z M-295 172 C-294 174 -294 174 -294 174 Z M195 173 C196 176 196 176 196 176 Z M-296 175 C-295 177 -295 177 -295 177 Z M196 177 C197 179 197 179 197 179 Z M-297 178 C-296 181 -296 181 -296 181 Z M197 180 C198 182 198 182 198 182 Z M-298 182 C-297 184 -297 184 -297 184 Z M198 183 C199 186 199 186 199 186 Z M-299 185 C-298 188 -298 188 -298 188 Z M199 187 C200 190 200 190 200 190 Z M-300 189 C-299 192 -299 192 -299 192 Z M200 191 C201 194 201 194 201 194 Z M-301 193 C-300 196 -300 196 -300 196 Z M201 195 C202 199 202 199 202 199 Z M-302 197 C-301 201 -301 201 -301 201 Z M202 200 C203 204 203 204 203 204 Z M-303 202 C-302 206 -302 206 -302 206 Z M203 205 C204 209 204 209 204 209 Z M-304 207 C-304 208.65 -304 210.3 -304 212 C-303.67 212 -303.34 212 -303 212 C-303 210.35 -303 208.7 -303 207 C-303.33 207 -303.66 207 -304 207 Z M204 210 C204 211.98 204 213.96 204 216 C204.33 216 204.66 216 205 216 C205 214.02 205 212.04 205 210 C204.67 210 204.34 210 204 210 Z M-305 213 C-305 215.31 -305 217.62 -305 220 C-304.67 220 -304.34 220 -304 220 C-304 217.69 -304 215.38 -304 213 C-304.33 213 -304.66 213 -305 213 Z M-305 285 C-305 286.98 -305 288.96 -305 291 C-304.67 291 -304.34 291 -304 291 C-304 289.02 -304 287.04 -304 285 C-304.33 285 -304.66 285 -305 285 Z M204 289 C204 290.65 204 292.3 204 294 C204.33 294 204.66 294 205 294 C205 292.35 205 290.7 205 289 C204.67 289 204.34 289 204 289 Z M-304 292 C-304 293.65 -304 295.3 -304 297 C-303.67 297 -303.34 297 -303 297 C-303 295.35 -303 293.7 -303 292 C-303.33 292 -303.66 292 -304 292 Z M203 295 C203 296.65 203 298.3 203 300 C203.33 300 203.66 300 204 300 C204 298.35 204 296.7 204 295 C203.67 295 203.34 295 203 295 Z M-303 298 C-302 302 -302 302 -302 302 Z M202 301 C203 305 203 305 203 305 Z M-302 303 C-301 307 -301 307 -301 307 Z M201 306 C202 309 202 309 202 309 Z M-301 308 C-300 311 -300 311 -300 311 Z M200 310 C201 314 201 314 201 314 Z M-300 312 C-299 315 -299 315 -299 315 Z M199 315 C200 317 200 317 200 317 Z M-299 316 C-298 319 -298 319 -298 319 Z M198 318 C199 321 199 321 199 321 Z M-298 320 C-297 323 -297 323 -297 323 Z M197 322 C198 325 198 325 198 325 Z M-297 324 C-296 326 -296 326 -296 326 Z M196 326 C197 328 197 328 197 328 Z M-296 327 C-295 329 -295 329 -295 329 Z M195 329 C196 331 196 331 196 331 Z M-295 330 C-294 333 -294 333 -294 333 Z M194 332 C195 334 195 334 195 334 Z M193 335 C194 337 194 337 194 337 Z M192 338 C193 340 193 340 193 340 Z M-292 339 C-291 341 -291 341 -291 341 Z M-291 342 C-290 344 -290 344 -290 344 Z M-288 349 C-287 351 -287 351 -287 351 Z " fill="#000000" transform="translate(306,4)"/>
<path d="M0 0 C0 0.66 0 1.32 0 2 C0.99 2 1.98 2 3 2 C3 2.66 3 3.32 3 4 C3.58652344 4.24105469 4.17304688 4.48210937 4.77734375 4.73046875 C10.05971522 7.7476405 14.31829816 14.63659632 17 20 C17 20.99 17 21.98 17 23 C17.66 23 18.32 23 19 23 C19.350625 23.763125 19.70125 24.52625 20.0625 25.3125 C21.62597978 28.45427927 23.47428353 31.36411193 25.375 34.3125 C27.45252479 37.53892624 29.47447418 40.75637618 31.3125 44.125 C36.83694095 54.24402551 42.48957288 64.40448254 49.4296875 73.62890625 C50.75189717 75.62537706 51.78731501 77.52395954 52.83203125 79.66796875 C55.20997691 84.5365294 57.99641341 89.12503056 60.8125 93.75 C61.8820485 95.51920607 62.9510611 97.28873622 64.01953125 99.05859375 C64.53209473 99.90663574 65.0446582 100.75467773 65.57275391 101.62841797 C69.16267478 107.59360637 72.66623538 113.60997383 76.0625 119.6875 C77.58878964 122.29696293 79.17373195 124.75744449 80.875 127.25 C83.5997499 131.28967895 85.92544916 135.45204321 88.21484375 139.75 C90.90885563 144.65463432 93.78446068 149.45068603 96.66113281 154.25 C97.0784668 154.95125 97.49580078 155.6525 97.92578125 156.375 C98.30130127 157.00148437 98.67682129 157.62796875 99.0637207 158.2734375 C100 160 100 160 101 163 C101.66 163 102.32 163 103 163 C103.37125 163.969375 103.7425 164.93875 104.125 165.9375 C105.41088019 168.94996109 106.95973876 171.55109583 108.8125 174.25 C110.98855431 177.42097401 112.93618112 180.60872391 114.75 184 C120.45627799 194.66761108 126.78653075 204.99752374 133 215.375 C133.56037964 216.31134277 133.56037964 216.31134277 134.13208008 217.26660156 C135.70458705 219.88417273 137.30570658 222.45855986 139 225 C139 225.99 139 226.98 139 228 C139.66 228 140.32 228 141 228 C142.7265625 230.51953125 142.7265625 230.51953125 144.625 233.8125 C145.57246094 235.43091797 145.57246094 235.43091797 146.5390625 237.08203125 C148 240 148 240 148 243 C148.66 243 149.32 243 150 243 C150.30550781 243.66902344 150.61101562 244.33804688 150.92578125 245.02734375 C154.51181426 252.55296232 158.71565269 259.40509424 163.3918457 266.29858398 C163.8580835 266.99540283 164.32432129 267.69222168 164.8046875 268.41015625 C165.22733887 269.03027588 165.64999023 269.65039551 166.08544922 270.28930664 C167 272 167 272 167 275 C167.66 275 168.32 275 169 275 C169.39832031 275.74765625 169.79664063 276.4953125 170.20703125 277.265625 C170.73683594 278.25046875 171.26664062 279.2353125 171.8125 280.25 C172.33457031 281.22453125 172.85664063 282.1990625 173.39453125 283.203125 C174.89203328 285.96127462 174.89203328 285.96127462 176.63671875 288.109375 C179.60605186 292.22730401 179.21372685 296.90202197 179.25 301.8125 C179.270625 302.49892578 179.29125 303.18535156 179.3125 303.89257812 C179.35805458 309.91147638 177.95891225 314.61060099 174.0625 319.36328125 C173.381875 320.00652344 172.70125 320.64976562 172 321.3125 C171.319375 321.96863281 170.63875 322.62476563 169.9375 323.30078125 C166.68057821 326.15715419 165.45929713 327 161 327 C161 327.66 161 328.32 161 329 C117.58443961 329.09155657 74.16888943 329.16203927 30.75325153 329.20426132 C25.62757443 329.20926414 20.50189752 329.21444143 15.3762207 329.21972656 C14.35579125 329.2207758 13.33536179 329.22182505 12.28401022 329.22290608 C-4.23838087 329.24031104 -20.7607163 329.27184925 -37.28307437 329.30861118 C-54.2366904 329.34601804 -71.19027727 329.36823532 -88.14393288 329.37635398 C-98.60515471 329.38184227 -109.06621918 329.39917628 -119.52739257 329.43166587 C-126.70113127 329.45281058 -133.87478861 329.45920013 -141.0485562 329.45400551 C-145.1873987 329.45144367 -149.32596622 329.45536928 -153.46475983 329.4768219 C-157.2568932 329.49633386 -161.04856751 329.49724022 -164.84072233 329.48359558 C-166.85619721 329.48111395 -168.87166695 329.49832422 -170.88706297 329.51632524 C-179.37932073 329.46039428 -185.67175206 328.24953599 -192.5234375 323.10546875 C-200.12498157 315.23129546 -201.61153707 309.70039296 -201.4375 298.7578125 C-200.81911745 293.44634809 -198.91756791 289.4284513 -196 285 C-195.34 285 -194.68 285 -194 285 C-193.94199219 284.35289062 -193.88398438 283.70578125 -193.82421875 283.0390625 C-192.63164252 278.64179091 -190.24641468 275.19551333 -187.8125 271.375 C-186.80651719 269.76692219 -185.8026017 268.15754922 -184.80078125 266.546875 C-184.0749585 265.37995117 -184.0749585 265.37995117 -183.33447266 264.18945312 C-181.14331966 260.59445495 -179.16229391 256.8970889 -177.21875 253.1640625 C-176 251 -176 251 -174.40625 248.8984375 C-172.81080442 246.95003884 -172.81080442 246.95003884 -172 244 C-171.34 244 -170.68 244 -170 244 C-169.87753906 243.42765625 -169.75507813 242.8553125 -169.62890625 242.265625 C-168.97237132 239.90046809 -168.06276488 237.92793203 -166.9375 235.75 C-166.57527344 235.04359375 -166.21304688 234.3371875 -165.83984375 233.609375 C-165.56269531 233.07828125 -165.28554687 232.5471875 -165 232 C-164.34 232 -163.68 232 -163 232 C-162.91234375 231.46761719 -162.8246875 230.93523437 -162.734375 230.38671875 C-161.74183858 227.16097537 -160.05906868 224.65872272 -158.25 221.8125 C-155.85538683 218.01047979 -153.50986476 214.20577883 -151.375 210.25 C-149.23555547 206.30585396 -146.79492787 202.6277571 -144.234375 198.9453125 C-142.83904604 196.91926122 -142.83904604 196.91926122 -142 194 C-141.34 194 -140.68 194 -140 194 C-139.88914063 193.27039063 -139.77828125 192.54078125 -139.6640625 191.7890625 C-138.9647461 188.85193362 -137.97019863 186.92561172 -136.375 184.375 C-135.57255859 183.07949219 -135.57255859 183.07949219 -134.75390625 181.7578125 C-132.94733551 178.91719124 -131.13057774 176.08326765 -129.3125 173.25 C-126.95983167 169.580462 -124.81915617 165.9593399 -123 162 C-122.34 162 -121.68 162 -121 162 C-120.87625 161.443125 -120.7525 160.88625 -120.625 160.3125 C-119.94023145 157.77885636 -119.00866237 155.42078968 -118 153 C-117.34 153 -116.68 153 -116 153 C-116 152.01 -116 151.02 -116 150 C-115.34 150 -114.68 150 -114 150 C-113.87625 149.443125 -113.7525 148.88625 -113.625 148.3125 C-112.94023145 145.77885636 -112.00866237 143.42078968 -111 141 C-110.34 141 -109.68 141 -109 141 C-108.01 138.03 -108.01 138.03 -107 135 C-106.34 135 -105.68 135 -105 135 C-104.92523438 134.32839844 -104.85046875 133.65679687 -104.7734375 132.96484375 C-103.74286445 129.01431371 -101.78803912 125.99529784 -99.625 122.5625 C-96.86478519 118.12389651 -94.26277944 113.72263966 -92 109 C-91.34 109 -90.68 109 -90 109 C-89.82597656 108.12988281 -89.82597656 108.12988281 -89.6484375 107.2421875 C-88.95508073 104.84467673 -87.99978253 103.19967182 -86.625 101.125 C-84.50706335 97.84680241 -82.67690053 94.53031691 -81 91 C-80.34 91 -79.68 91 -79 91 C-78.83564453 89.89011719 -78.83564453 89.89011719 -78.66796875 88.7578125 C-77.96609056 85.85999962 -77.04822288 84.27129983 -75.3125 81.875 C-73.06938114 78.64554519 -71.08539558 75.41481641 -69.25 71.9375 C-66.26818365 66.33769636 -62.93053451 60.9996183 -59.51464844 55.65795898 C-57.10369656 51.86520076 -54.9354057 48.06624325 -53 44 C-52.34 44 -51.68 44 -51 44 C-50.67 42.02 -50.34 40.04 -50 38 C-49.34 38 -48.68 38 -48 38 C-47.855625 37.38125 -47.71125 36.7625 -47.5625 36.125 C-47 34 -47 34 -46 32 C-45.34 32 -44.68 32 -44 32 C-43.88914063 31.27167969 -43.77828125 30.54335937 -43.6640625 29.79296875 C-41.3482923 20.05311173 -32.41108127 7.44246435 -24 2 C-15.85572814 -1.37856809 -8.63734353 -1.72746871 0 0 Z " fill="#020000" transform="translate(267,65)"/>
<path d="M0 0 C0 0.66 0 1.32 0 2 C0.99 2 1.98 2 3 2 C3 2.66 3 3.32 3 4 C3.58652344 4.24105469 4.17304688 4.48210937 4.77734375 4.73046875 C10.05971522 7.7476405 14.31829816 14.63659632 17 20 C17 20.99 17 21.98 17 23 C17.66 23 18.32 23 19 23 C19.350625 23.763125 19.70125 24.52625 20.0625 25.3125 C21.62597978 28.45427927 23.47428353 31.36411193 25.375 34.3125 C27.45252479 37.53892624 29.47447418 40.75637618 31.3125 44.125 C36.83694095 54.24402551 42.48957288 64.40448254 49.4296875 73.62890625 C50.75189717 75.62537706 51.78731501 77.52395954 52.83203125 79.66796875 C55.20997691 84.5365294 57.99641341 89.12503056 60.8125 93.75 C61.8820485 95.51920607 62.9510611 97.28873622 64.01953125 99.05859375 C64.53209473 99.90663574 65.0446582 100.75467773 65.57275391 101.62841797 C69.16267478 107.59360637 72.66623538 113.60997383 76.0625 119.6875 C77.58878964 122.29696293 79.17373195 124.75744449 80.875 127.25 C83.5997499 131.28967895 85.92544916 135.45204321 88.21484375 139.75 C90.90885563 144.65463432 93.78446068 149.45068603 96.66113281 154.25 C97.0784668 154.95125 97.49580078 155.6525 97.92578125 156.375 C98.30130127 157.00148437 98.67682129 157.62796875 99.0637207 158.2734375 C100 160 100 160 101 163 C101.66 163 102.32 163 103 163 C103.37125 163.969375 103.7425 164.93875 104.125 165.9375 C105.41088019 168.94996109 106.95973876 171.55109583 108.8125 174.25 C110.98855431 177.42097401 112.93618112 180.60872391 114.75 184 C120.45627799 194.66761108 126.78653075 204.99752374 133 215.375 C133.56037964 216.31134277 133.56037964 216.31134277 134.13208008 217.26660156 C135.70458705 219.88417273 137.30570658 222.45855986 139 225 C139 225.99 139 226.98 139 228 C139.66 228 140.32 228 141 228 C142.7265625 230.51953125 142.7265625 230.51953125 144.625 233.8125 C145.57246094 235.43091797 145.57246094 235.43091797 146.5390625 237.08203125 C148 240 148 240 148 243 C148.66 243 149.32 243 150 243 C150.30550781 243.66902344 150.61101562 244.33804688 150.92578125 245.02734375 C154.51181426 252.55296232 158.71565269 259.40509424 163.3918457 266.29858398 C163.8580835 266.99540283 164.32432129 267.69222168 164.8046875 268.41015625 C165.22733887 269.03027588 165.64999023 269.65039551 166.08544922 270.28930664 C167 272 167 272 167 275 C167.66 275 168.32 275 169 275 C169.39832031 275.74765625 169.79664063 276.4953125 170.20703125 277.265625 C170.73683594 278.25046875 171.26664062 279.2353125 171.8125 280.25 C172.33457031 281.22453125 172.85664063 282.1990625 173.39453125 283.203125 C174.89203328 285.96127462 174.89203328 285.96127462 176.63671875 288.109375 C179.60605186 292.22730401 179.21372685 296.90202197 179.25 301.8125 C179.270625 302.49892578 179.29125 303.18535156 179.3125 303.89257812 C179.35805458 309.91147638 177.95891225 314.61060099 174.0625 319.36328125 C173.381875 320.00652344 172.70125 320.64976562 172 321.3125 C171.319375 321.96863281 170.63875 322.62476563 169.9375 323.30078125 C166.68057821 326.15715419 165.45929713 327 161 327 C161 327.66 161 328.32 161 329 C117.58443961 329.09155657 74.16888943 329.16203927 30.75325153 329.20426132 C25.62757443 329.20926414 20.50189752 329.21444143 15.3762207 329.21972656 C14.35579125 329.2207758 13.33536179 329.22182505 12.28401022 329.22290608 C-4.23838087 329.24031104 -20.7607163 329.27184925 -37.28307437 329.30861118 C-54.2366904 329.34601804 -71.19027727 329.36823532 -88.14393288 329.37635398 C-98.60515471 329.38184227 -109.06621918 329.39917628 -119.52739257 329.43166587 C-126.70113127 329.45281058 -133.87478861 329.45920013 -141.0485562 329.45400551 C-145.1873987 329.45144367 -149.32596622 329.45536928 -153.46475983 329.4768219 C-157.2568932 329.49633386 -161.04856751 329.49724022 -164.84072233 329.48359558 C-166.85619721 329.48111395 -168.87166695 329.49832422 -170.88706297 329.51632524 C-179.37932073 329.46039428 -185.67175206 328.24953599 -192.5234375 323.10546875 C-200.12498157 315.23129546 -201.61153707 309.70039296 -201.4375 298.7578125 C-200.81911745 293.44634809 -198.91756791 289.4284513 -196 285 C-195.34 285 -194.68 285 -194 285 C-193.94199219 284.35289062 -193.88398438 283.70578125 -193.82421875 283.0390625 C-192.63164252 278.64179091 -190.24641468 275.19551333 -187.8125 271.375 C-186.80651719 269.76692219 -185.8026017 268.15754922 -184.80078125 266.546875 C-184.0749585 265.37995117 -184.0749585 265.37995117 -183.33447266 264.18945312 C-181.14331966 260.59445495 -179.16229391 256.8970889 -177.21875 253.1640625 C-176 251 -176 251 -174.40625 248.8984375 C-172.81080442 246.95003884 -172.81080442 246.95003884 -172 244 C-171.34 244 -170.68 244 -170 244 C-169.87753906 243.42765625 -169.75507813 242.8553125 -169.62890625 242.265625 C-168.97237132 239.90046809 -168.06276488 237.92793203 -166.9375 235.75 C-166.57527344 235.04359375 -166.21304688 234.3371875 -165.83984375 233.609375 C-165.56269531 233.07828125 -165.28554687 232.5471875 -165 232 C-164.34 232 -163.68 232 -163 232 C-162.91234375 231.46761719 -162.8246875 230.93523437 -162.734375 230.38671875 C-161.74183858 227.16097537 -160.05906868 224.65872272 -158.25 221.8125 C-155.85538683 218.01047979 -153.50986476 214.20577883 -151.375 210.25 C-149.23555547 206.30585396 -146.79492787 202.6277571 -144.234375 198.9453125 C-142.83904604 196.91926122 -142.83904604 196.91926122 -142 194 C-141.34 194 -140.68 194 -140 194 C-139.88914063 193.27039063 -139.77828125 192.54078125 -139.6640625 191.7890625 C-138.9647461 188.85193362 -137.97019863 186.92561172 -136.375 184.375 C-135.57255859 183.07949219 -135.57255859 183.07949219 -134.75390625 181.7578125 C-132.94733551 178.91719124 -131.13057774 176.08326765 -129.3125 173.25 C-126.95983167 169.580462 -124.81915617 165.9593399 -123 162 C-122.34 162 -121.68 162 -121 162 C-120.87625 161.443125 -120.7525 160.88625 -120.625 160.3125 C-119.94023145 157.77885636 -119.00866237 155.42078968 -118 153 C-117.34 153 -116.68 153 -116 153 C-116 152.01 -116 151.02 -116 150 C-115.34 150 -114.68 150 -114 150 C-113.87625 149.443125 -113.7525 148.88625 -113.625 148.3125 C-112.94023145 145.77885636 -112.00866237 143.42078968 -111 141 C-110.34 141 -109.68 141 -109 141 C-108.01 138.03 -108.01 138.03 -107 135 C-106.34 135 -105.68 135 -105 135 C-104.92523438 134.32839844 -104.85046875 133.65679687 -104.7734375 132.96484375 C-103.74286445 129.01431371 -101.78803912 125.99529784 -99.625 122.5625 C-96.86478519 118.12389651 -94.26277944 113.72263966 -92 109 C-91.34 109 -90.68 109 -90 109 C-89.82597656 108.12988281 -89.82597656 108.12988281 -89.6484375 107.2421875 C-88.95508073 104.84467673 -87.99978253 103.19967182 -86.625 101.125 C-84.50706335 97.84680241 -82.67690053 94.53031691 -81 91 C-80.34 91 -79.68 91 -79 91 C-78.83564453 89.89011719 -78.83564453 89.89011719 -78.66796875 88.7578125 C-77.96609056 85.85999962 -77.04822288 84.27129983 -75.3125 81.875 C-73.06938114 78.64554519 -71.08539558 75.41481641 -69.25 71.9375 C-66.26818365 66.33769636 -62.93053451 60.9996183 -59.51464844 55.65795898 C-57.10369656 51.86520076 -54.9354057 48.06624325 -53 44 C-52.34 44 -51.68 44 -51 44 C-50.67 42.02 -50.34 40.04 -50 38 C-49.34 38 -48.68 38 -48 38 C-47.855625 37.38125 -47.71125 36.7625 -47.5625 36.125 C-47 34 -47 34 -46 32 C-45.34 32 -44.68 32 -44 32 C-43.88914063 31.27167969 -43.77828125 30.54335937 -43.6640625 29.79296875 C-41.3482923 20.05311173 -32.41108127 7.44246435 -24 2 C-15.85572814 -1.37856809 -8.63734353 -1.72746871 0 0 Z M-23.39379883 30.44873047 C-23.84779053 31.30869629 -24.30178223 32.16866211 -24.76953125 33.0546875 C-28.01642184 39.090019 -31.51243342 44.95172543 -35.0625 50.8125 C-39.99896157 58.99743634 -44.90353564 67.19894998 -49.75 75.4375 C-53.74660454 82.2294105 -57.80438187 88.97781911 -61.9375 95.6875 C-65.35647359 101.2394778 -68.62241222 106.83048693 -71.69140625 112.5859375 C-73.43869829 115.80930013 -75.32989898 118.93404437 -77.234375 122.06640625 C-78.63780038 124.39820373 -80.02015675 126.73870789 -81.390625 129.08984375 C-85.31780631 135.82427644 -89.244201 142.48770563 -93.65234375 148.921875 C-95.74146256 152.14335675 -97.49636005 155.53327209 -99.3046875 158.91796875 C-101.26358534 162.47919087 -103.33616028 165.95908584 -105.4375 169.4375 C-105.81874023 170.07026855 -106.19998047 170.70303711 -106.59277344 171.35498047 C-108.08806926 173.83549457 -109.58456236 176.31525575 -111.08691406 178.79150391 C-112.08502182 180.44057177 -113.07399654 182.09515716 -114.0625 183.75 C-114.63097656 184.69359375 -115.19945312 185.6371875 -115.78515625 186.609375 C-117.22651543 188.99881549 -117.22651543 188.99881549 -117 192 C-117.66 192 -118.32 192 -119 192 C-121.2773501 194.81509993 -121.2773501 194.81509993 -121 198 C-121.66 198 -122.32 198 -123 198 C-123.495 200.97 -123.495 200.97 -124 204 C-124.66 204 -125.32 204 -126 204 C-127.6560055 206.55515292 -129.18828452 209.10447332 -130.6875 211.75 C-131.13593262 212.52625732 -131.58436523 213.30251465 -132.04638672 214.10229492 C-133.37131859 216.39756269 -134.687062 218.69785508 -136 221 C-140.18259893 228.30898601 -144.50363197 235.35065022 -149.3984375 242.2109375 C-151.12093241 245.21059937 -151.64709841 247.58189605 -152 251 C-152.66 251 -153.32 251 -154 251 C-155.55294774 253.38819851 -156.97709303 255.77212748 -158.375 258.25 C-159.27114939 259.80655768 -160.16832959 261.36252224 -161.06640625 262.91796875 C-161.54094238 263.74345215 -162.01547852 264.56893555 -162.50439453 265.41943359 C-165.05986236 269.82872105 -167.68655934 274.1949392 -170.3125 278.5625 C-170.80347168 279.38202148 -171.29444336 280.20154297 -171.80029297 281.04589844 C-172.51209717 282.2316748 -172.51209717 282.2316748 -173.23828125 283.44140625 C-173.69678467 284.20630371 -174.15528809 284.97120117 -174.62768555 285.75927734 C-175.53911645 287.24746678 -176.47292316 288.72219156 -177.42895508 290.18212891 C-179.82869312 293.85130296 -181.66585873 296.7787711 -182.0625 301.25 C-182.15660156 302.05953125 -182.25070313 302.8690625 -182.34765625 303.703125 C-181.85578912 306.95276405 -180.52710374 307.95620282 -178 310 C-175.31148139 310.59659148 -175.31148139 310.59659148 -172.30278015 310.50336456 C-171.13382863 310.51379555 -169.96487711 310.52422654 -168.76050282 310.53497362 C-166.83270749 310.52158929 -166.83270749 310.52158929 -164.8659668 310.50793457 C-163.48767531 310.51254236 -162.10938874 310.51889446 -160.73111248 310.52684355 C-156.9396134 310.54357709 -153.14851586 310.53527251 -149.35701513 310.52289867 C-145.26968985 310.51386684 -141.18243474 310.5278086 -137.09512329 310.53881836 C-129.08649396 310.5566282 -121.07801436 310.55275266 -113.06937909 310.5411678 C-106.56205848 310.53214342 -100.0547799 310.53090515 -93.54745483 310.53526306 C-92.15954413 310.53618246 -92.15954413 310.53618246 -90.74359483 310.53712043 C-88.86406587 310.5383993 -86.98453693 310.53969615 -85.10500801 310.5410108 C-67.47028739 310.55242381 -49.83564987 310.53929158 -32.20094287 310.51780933 C-17.06132914 310.49993769 -1.92183808 310.5030416 13.21777344 310.52148438 C30.78830963 310.54287836 48.35877294 310.55132511 65.92932034 310.53903532 C67.80203182 310.53776109 69.67474332 310.53650361 71.54745483 310.53526306 C72.92965988 310.53433741 72.92965988 310.53433741 74.33978826 310.53339306 C80.84117746 310.52993573 87.34252053 310.53577672 93.84390259 310.54518127 C101.76424652 310.5563863 109.68443184 310.55339283 117.60475755 310.5320583 C121.6478017 310.52152762 125.69058116 310.51746015 129.7336235 310.53065491 C133.43223761 310.54254327 137.1303408 310.53607585 140.82890832 310.5147447 C142.80610694 310.50813469 144.78334081 310.52124655 146.76050282 310.53497362 C148.5139301 310.51932714 148.5139301 310.51932714 150.30278015 310.50336456 C151.3137057 310.50271515 152.32463125 310.50206574 153.36619091 310.50139666 C156.73536952 309.86000814 157.92039006 308.68002034 160 306 C161.18677237 299.40682018 158.14020271 294.57385981 155 289 C154.34 289 153.68 289 153 289 C152.87238281 288.22462891 152.87238281 288.22462891 152.7421875 287.43359375 C151.70396357 284.02931211 149.9181604 281.1121581 148.125 278.0625 C147.59712891 277.15081055 147.59712891 277.15081055 147.05859375 276.22070312 C146.04620305 274.47630503 145.02330158 272.73802 144 271 C143.46117187 270.02933594 142.92234375 269.05867187 142.3671875 268.05859375 C141.91601562 267.37925781 141.46484375 266.69992187 141 266 C140.34 266 139.68 266 139 266 C138.91234375 265.30390625 138.8246875 264.6078125 138.734375 263.890625 C137.82945068 260.32868883 136.23511073 257.83960843 134.25 254.75 C131.87696207 251.00974293 129.54232991 247.27491896 127.4375 243.375 C125.72859982 240.23826874 123.8884626 237.2421013 121.9375 234.25 C117.83025299 227.89097282 114.1379372 221.30330209 110.43920898 214.70019531 C107.58383625 209.63721613 104.56499384 204.76616113 101.30151367 199.95654297 C99.77788445 197.66609754 98.45594804 195.31525243 97.1875 192.875 C94.37494319 187.6060941 91.34337328 182.49498326 88.24682617 177.39013672 C85.76488795 173.2956834 83.36059167 169.16575001 81 165 C80.34 165 79.68 165 79 165 C78.88591797 164.26410645 78.77183594 163.52821289 78.65429688 162.77001953 C77.9852578 159.93758768 77.08051899 158.12417613 75.53125 155.6796875 C75.04269531 154.89722656 74.55414063 154.11476562 74.05078125 153.30859375 C73.53902344 152.50550781 73.02726563 151.70242187 72.5 150.875 C71.48692618 149.26990319 70.47639528 147.66319778 69.46875 146.0546875 C69.01951172 145.34812012 68.57027344 144.64155273 68.10742188 143.91357422 C67 142 67 142 66 139 C65.34 139 64.68 139 64 139 C63.34 137.02 62.68 135.04 62 133 C61.34 133 60.68 133 60 133 C59.885354 132.26587891 59.77070801 131.53175781 59.65258789 130.77539062 C58.98560579 127.93878287 58.07349425 126.06656612 56.55859375 123.59375 C55.81234741 122.36362183 55.81234741 122.36362183 55.05102539 121.10864258 C54.25233032 119.8173645 54.25233032 119.8173645 53.4375 118.5 C52.89536865 117.61014404 52.3532373 116.72028809 51.79467773 115.8034668 C50.20446251 113.19728729 48.60439497 110.59746903 47 108 C46.58137695 107.32146973 46.16275391 106.64293945 45.73144531 105.94384766 C44.04411854 103.21014495 42.35510033 100.47750258 40.6640625 97.74609375 C38.77324756 94.62580525 37.0203049 91.44641912 35.27734375 88.2421875 C33.77253695 85.60072235 32.14601725 83.05575151 30.5 80.5 C27.95262685 76.54168957 25.58319529 72.5417605 23.32421875 68.4140625 C21.67573559 65.40886312 20.00520387 62.41805485 18.3125 59.4375 C17.73113281 58.40496094 17.14976562 57.37242188 16.55078125 56.30859375 C16.03902344 55.54675781 15.52726563 54.78492188 15 54 C14.34 54 13.68 54 13 54 C12.814375 52.8553125 12.814375 52.8553125 12.625 51.6875 C12.11897208 48.79732864 12.11897208 48.79732864 10 46 C9.34 46 8.68 46 8 46 C8 44.68 8 43.36 8 42 C7.34 42 6.68 42 6 42 C5.89429688 41.44183594 5.78859375 40.88367188 5.6796875 40.30859375 C4.87311063 37.56901368 3.62796509 35.48892872 2.125 33.0625 C1.61195313 32.22847656 1.09890625 31.39445312 0.5703125 30.53515625 C0.05210937 29.69855469 -0.46609375 28.86195312 -1 28 C-1.53496094 27.10796875 -2.06992187 26.2159375 -2.62109375 25.296875 C-4.37725167 22.2320167 -4.37725167 22.2320167 -7 20 C-15.86346292 18.3750318 -19.22109997 23.11781971 -23.39379883 30.44873047 Z " fill="#C71414" transform="translate(267,65)"/>
<path d="M0 0 C2.18454216 3.08849064 3.36141109 6.1916508 4.68359375 9.72265625 C6.30035471 13.78973314 8.30690253 17.63063154 10.29296875 21.52734375 C12.21543962 25.36734341 13.98401541 29.26669453 15.734375 33.1875 C16.42086567 34.6997693 17.14898885 36.19429899 17.9296875 37.66015625 C19.35869877 40.73948584 19.16371085 43.22599692 18.8125 46.5625 C16.18111909 50.47599226 13.41214761 52.68836604 9.375 55.0625 C2.36124781 59.01131294 2.36124781 59.01131294 -1.8046875 65.5546875 C-2.81940038 71.53942264 -1.45721362 76.05667126 0.8125 81.5625 C1.1425 82.45582031 1.4725 83.34914063 1.8125 84.26953125 C5.16834708 92.97375961 9.80455403 100.73292127 14.8125 108.5625 C15.37839844 109.44808594 15.94429688 110.33367187 16.52734375 111.24609375 C20.01820894 116.44398348 23.95245232 121.23196563 28 126 C28.51151611 126.60400635 29.02303223 127.2080127 29.55004883 127.83032227 C34.14737321 133.38252658 34.14737321 133.38252658 40.609375 136.07421875 C41.58390625 136.13222656 42.5584375 136.19023437 43.5625 136.25 C44.54734375 136.31574219 45.5321875 136.38148438 46.546875 136.44921875 C47.29453125 136.48660156 48.0421875 136.52398437 48.8125 136.5625 C48.8125 135.9025 48.8125 135.2425 48.8125 134.5625 C50.5703125 133.1953125 50.5703125 133.1953125 52.9375 131.6875 C55.70621014 129.91968508 58.36222012 128.15290462 61 126.1875 C64.46699207 124.18434903 65.87928914 123.69719361 69.8125 124.5625 C76.79896654 129.07181174 81.70781049 136.14589688 86.8125 142.5625 C88.57168285 144.69729038 90.34746578 146.81798007 92.125 148.9375 C93.69146632 150.80918761 95.25423947 152.68397521 96.8125 154.5625 C97.55757812 155.44164062 98.30265625 156.32078125 99.0703125 157.2265625 C100.8125 159.5625 100.8125 159.5625 101.375 162.5625 C100.62960587 166.53793534 98.75617661 168.05828222 95.8125 170.5625 C95.22726562 171.15933594 94.64203125 171.75617188 94.0390625 172.37109375 C84.67239715 181.57626487 73.8754517 187.31749876 60.625 187.3125 C38.86407164 186.58351811 22.79910507 174.41725811 7.8125 159.5625 C6.95398438 158.75296875 6.09546875 157.9434375 5.2109375 157.109375 C-0.46057026 151.66613225 -5.27865749 145.82959814 -9.9609375 139.54296875 C-11.29226189 137.7608626 -12.66239817 136.00538932 -14.10546875 134.3125 C-17.19151642 130.2363695 -19.6146998 125.82208612 -22.125 121.375 C-22.63740234 120.47974609 -23.14980469 119.58449219 -23.67773438 118.66210938 C-33.41712123 101.52227355 -41.04203198 83.87381389 -45.1875 64.5625 C-45.36337646 63.86165283 -45.53925293 63.16080566 -45.72045898 62.4387207 C-47.0650354 56.94502897 -47.5368452 51.77440561 -47.5 46.125 C-47.49871094 45.29895264 -47.49742187 44.47290527 -47.49609375 43.62182617 C-47.40086022 37.5727114 -46.60637775 32.16335385 -44.1875 26.5625 C-43.5275 26.5625 -42.8675 26.5625 -42.1875 26.5625 C-42.08179688 25.82515625 -41.97609375 25.0878125 -41.8671875 24.328125 C-39.45628376 14.51824082 -28.67165248 7.11704327 -20.65625 1.921875 C-14.13793937 -1.85874516 -6.96823065 -4.579123 0 0 Z " fill="#C91415" transform="translate(244.1875,171.4375)"/>
<path d="M0 0 C1.03136513 3.09409538 0.94810547 3.94343749 0.375 7 C-0.27958641 11.93768271 0.79818678 15.82575534 2.30859375 20.51953125 C3 23 3 23 3 27 C2.34 27 1.68 27 1 27 C0.72285156 26.00097656 0.44570312 25.00195312 0.16015625 23.97265625 C-0.20555549 22.66922209 -0.57145038 21.36583931 -0.9375 20.0625 C-1.11990234 19.40314453 -1.30230469 18.74378906 -1.49023438 18.06445312 C-2.22596101 14.76178827 -2.22596101 14.76178827 -4 12 C-4.73673311 6.99021488 -2.57583383 4.10523517 0 0 Z " fill="#DB1616" transform="translate(242,232)"/>
<path d="M0 0 C0.33 0 0.66 0 1 0 C1.71960516 9.44343382 2.32368341 18.57130123 1 28 C0.67 28 0.34 28 0 28 C-1.25237852 23.15945762 -1.14767328 18.39916861 -1.125 13.4375 C-1.12886719 12.58736328 -1.13273438 11.73722656 -1.13671875 10.86132812 C-1.13542969 10.03955078 -1.13414062 9.21777344 -1.1328125 8.37109375 C-1.13168457 7.62786865 -1.13055664 6.88464355 -1.12939453 6.11889648 C-0.99800151 3.96727379 -0.58919579 2.06920646 0 0 Z " fill="#B11112" transform="translate(198,204)"/>
<path d="M0 0 C0.33 0.66 0.66 1.32 1 2 C-0.4375 4.625 -0.4375 4.625 -2 7 C-1.01 7.33 -0.02 7.66 1 8 C0.67 8.66 0.34 9.32 0 10 C-0.66 10 -1.32 10 -2 10 C-2 10.99 -2 11.98 -2 13 C-2.66 13 -3.32 13 -4 13 C-4.33 13.99 -4.66 14.98 -5 16 C-6.32 15.67 -7.64 15.34 -9 15 C-7.68944504 12.68637791 -6.3766597 10.37407322 -5.0625 8.0625 C-4.50272461 7.0734668 -4.50272461 7.0734668 -3.93164062 6.06445312 C-1.11328125 1.11328125 -1.11328125 1.11328125 0 0 Z " fill="#B81312" transform="translate(138,238)"/>
<path d="M0 0 C1.01126953 0.49113281 1.01126953 0.49113281 2.04296875 0.9921875 C5.61501454 2.20960865 8.54711647 2.195381 12.3125 2.125 C13.56675781 2.10695313 14.82101562 2.08890625 16.11328125 2.0703125 C17.06589844 2.04710937 18.01851563 2.02390625 19 2 C18.01 3.485 18.01 3.485 17 5 C14.1015625 5.3984375 14.1015625 5.3984375 10.625 5.375 C8.91183594 5.38660156 8.91183594 5.38660156 7.1640625 5.3984375 C3.79610906 4.97432485 2.36796937 4.39129912 0 2 C0 1.34 0 0.68 0 0 Z " fill="#DD1516" transform="translate(277,305)"/>
<path d="M0 0 C0.66 0 1.32 0 2 0 C0.46197215 5.84450583 -2.4560838 11.12711522 -6 16 C-6.66 16 -7.32 16 -8 16 C-6.46197215 10.15549417 -3.5439162 4.87288478 0 0 Z " fill="#D91616" transform="translate(224,125)"/>
<path d="M0 0 C1.485 0.99 1.485 0.99 3 2 C3 2.66 3 3.32 3 4 C3.66 4 4.32 4 5 4 C8 9.625 8 9.625 8 13 C8.66 13 9.32 13 10 13 C10 13.99 10 14.98 10 16 C9.34 16 8.68 16 8 16 C6.30859375 13.76953125 6.30859375 13.76953125 4.4375 10.8125 C3.81746094 9.84957031 3.19742187 8.88664063 2.55859375 7.89453125 C1.08833292 5.16404685 0.40710846 3.050525 0 0 Z " fill="#DC1616" transform="translate(332,202)"/>
<path d="M0 0 C0.66 0.33 1.32 0.66 2 1 C0.1875 3.5 0.1875 3.5 -2 6 C-2.99 6 -3.98 6 -5 6 C-5 6.66 -5 7.32 -5 8 C-7.64 8.33 -10.28 8.66 -13 9 C-9.49391962 4.88416651 -4.95371163 2.09432982 0 0 Z " fill="#B01111" transform="translate(230,170)"/>
<path d="M0 0 C1.32 0.33 2.64 0.66 4 1 C4.3125 3.6875 4.3125 3.6875 4 7 C1.37632897 10.20670904 -1.15211415 12.4323428 -5 14 C-4 11 -4 11 -1.375 8.6875 C1.39995479 6.18244734 1.39995479 6.18244734 0.8125 2.6875 C0.544375 1.800625 0.27625 0.91375 0 0 Z " fill="#DC1617" transform="translate(341,330)"/>
<path d="M0 0 C2.375 1.5 2.375 1.5 4 3 C3.67 3.99 3.34 4.98 3 6 C2.4225 5.525625 1.845 5.05125 1.25 4.5625 C-0.92582084 3.0515133 -2.42602448 2.45963849 -5 2 C-5 2.66 -5 3.32 -5 4 C-6.65 4.33 -8.3 4.66 -10 5 C-7.6853348 -0.12533009 -5.56888064 -0.44551045 0 0 Z " fill="#DF1717" transform="translate(314,296)"/>
<path d="M0 0 C2.7934242 1.3967121 2.96442959 2.99413085 4.0625 5.875 C4.57490234 7.20144531 4.57490234 7.20144531 5.09765625 8.5546875 C5.7632722 10.35847791 6.3919947 12.1759841 7 14 C6.34 14 5.68 14 5 14 C4.67 14.66 4.34 15.32 4 16 C3.32320342 14.274773 2.65898 12.54461061 2 10.8125 C1.443125 9.36810547 1.443125 9.36810547 0.875 7.89453125 C0.02363228 5.07817642 -0.17072647 2.91835561 0 0 Z " fill="#B51212" transform="translate(244,173)"/>
<path d="M0 0 C0.99 0.33 1.98 0.66 3 1 C1.58163643 6.1576857 -0.67391575 10.79975258 -4 15 C-4.66 15 -5.32 15 -6 15 C-5.42482026 11.4051266 -3.74776707 8.75982496 -1.921875 5.68359375 C-0.90544138 3.82731031 -0.33443221 2.09020128 0 0 Z " fill="#DD1717" transform="translate(213,141)"/>
<path d="M0 0 C0.33 0.99 0.66 1.98 1 3 C1.66 3 2.32 3 3 3 C3.83848804 4.45537568 4.67063934 5.91440373 5.5 7.375 C6.19609375 8.59316406 6.19609375 8.59316406 6.90625 9.8359375 C8 12 8 12 8 14 C4.38226397 12.56684975 3.030893 10.95412036 1.1875 7.5625 C0.74792969 6.78003906 0.30835938 5.99757812 -0.14453125 5.19140625 C-1 3 -1 3 0 0 Z " fill="#D91616" transform="translate(348,227)"/>
<path d="M0 0 C0.33 0.99 0.66 1.98 1 3 C-0.18694945 5.35338373 -1.39859961 7.47932731 -2.8125 9.6875 C-3.18181641 10.29400391 -3.55113281 10.90050781 -3.93164062 11.52539062 C-4.89186245 13.05795292 -5.94013201 14.53458095 -7 16 C-7.66 16 -8.32 16 -9 16 C-7.73171494 11.45531185 -6.01327164 8.59648551 -3 5 C-2.67 4.01 -2.34 3.02 -2 2 C-1.34 2 -0.68 2 0 2 C0 1.34 0 0.68 0 0 Z " fill="#E11717" transform="translate(123,296)"/>
<path d="M0 0 C1 3 1 3 -0.14453125 5.48046875 C-0.97017578 6.82044922 -0.97017578 6.82044922 -1.8125 8.1875 C-2.35519531 9.08855469 -2.89789063 9.98960938 -3.45703125 10.91796875 C-3.96621094 11.60503906 -4.47539062 12.29210937 -5 13 C-5.66 13 -6.32 13 -7 13 C-6.36610765 9.50155614 -4.94822306 7.15913124 -2.9375 4.25 C-2.38964844 3.45078125 -1.84179688 2.6515625 -1.27734375 1.828125 C-0.85582031 1.22484375 -0.43429688 0.6215625 0 0 Z " fill="#DB1616" transform="translate(247,87)"/>
<path d="M0 0 C6 7.4 6 7.4 6 11 C6.66 11 7.32 11 8 11 C7.67 11.66 7.34 12.32 7 13 C6.01 12.67 5.02 12.34 4 12 C3.67 11.01 3.34 10.02 3 9 C2.34 9 1.68 9 1 9 C0.67 6.03 0.34 3.06 0 0 Z " fill="#B61312" transform="translate(400,282)"/>
<path d="M0 0 C0.33 0.99 0.66 1.98 1 3 C-0.43359375 5.69921875 -0.43359375 5.69921875 -2.4375 8.6875 C-3.42556641 10.17830078 -3.42556641 10.17830078 -4.43359375 11.69921875 C-5.20896484 12.83810547 -5.20896484 12.83810547 -6 14 C-7 11 -7 11 -6 8 C-5.34 8 -4.68 8 -4 8 C-4 7.01 -4 6.02 -4 5 C-3.34 5 -2.68 5 -2 5 C-1.855625 4.360625 -1.71125 3.72125 -1.5625 3.0625 C-1 1 -1 1 0 0 Z " fill="#E11617" transform="translate(92,348)"/>
<path d="M0 0 C0.66 0.33 1.32 0.66 2 1 C-0.75134539 3.95514876 -3.39733775 6.1524809 -7 8 C-7.99 8 -8.98 8 -10 8 C-10 7.34 -10 6.68 -10 6 C-7.8828125 4.45703125 -7.8828125 4.45703125 -5.125 2.8125 C-4.22007812 2.26207031 -3.31515625 1.71164063 -2.3828125 1.14453125 C-1.20332031 0.57798828 -1.20332031 0.57798828 0 0 Z " fill="#D91616" transform="translate(256,221)"/>
<path d="M0 0 C0.67578125 1.671875 0.67578125 1.671875 1 4 C-0.14453125 6.578125 -0.14453125 6.578125 -1.8125 9.25 C-2.35519531 10.14203125 -2.89789063 11.0340625 -3.45703125 11.953125 C-3.96621094 12.62859375 -4.47539062 13.3040625 -5 14 C-5.66 14 -6.32 14 -7 14 C-7 13.01 -7 12.02 -7 11 C-6.34 11 -5.68 11 -5 11 C-4.87625 10.2265625 -4.87625 10.2265625 -4.75 9.4375 C-3.67859775 5.95544268 -1.86476395 3.12799115 0 0 Z " fill="#E01717" transform="translate(205,157)"/>
<path d="M0 0 C7.48291572 6.15034169 7.48291572 6.15034169 10 10 C6.7451198 9.41978222 5.06347592 8.47352859 2.75 6.125 C2.22921875 5.61195313 1.7084375 5.09890625 1.171875 4.5703125 C0 3 0 3 0 0 Z " fill="#E01717" transform="translate(245,321)"/>
<path d="M0 0 C3.27742098 3.10026309 5.93104837 5.97098894 8 10 C8 10.66 8 11.32 8 12 C7.34 12 6.68 12 6 12 C4.64721885 10.01310269 3.31431695 8.01254782 2 6 C1.34 5.67 0.68 5.34 0 5 C0 3.35 0 1.7 0 0 Z " fill="#D91716" transform="translate(229,300)"/>
<path d="M0 0 C0.33 1.32 0.66 2.64 1 4 C1.66 4 2.32 4 3 4 C3 4.66 3 5.32 3 6 C2.34 6 1.68 6 1 6 C0.67 6.99 0.34 7.98 0 9 C-1.32 8.67 -2.64 8.34 -4 8 C-2.68 5.36 -1.36 2.72 0 0 Z " fill="#B61213" transform="translate(168,186)"/>
<path d="M0 0 C3.2542015 2.83430453 4.5206753 4.68607774 5 9 C5.66 9 6.32 9 7 9 C7 9.99 7 10.98 7 12 C6.34 12 5.68 12 5 12 C3.7109375 10.390625 3.7109375 10.390625 2.375 8.25 C1.92898438 7.55390625 1.48296875 6.8578125 1.0234375 6.140625 C0 4 0 4 0 0 Z " fill="#D81616" transform="translate(314,171)"/>
<path d="M0 0 C0.33 0.66 0.66 1.32 1 2 C0.67 2.66 0.34 3.32 0 4 C0.66 4 1.32 4 2 4 C2.33 3.34 2.66 2.68 3 2 C3 5 3 5 1.75 6.75 C0 8 0 8 -2.1875 7.6875 C-2.785625 7.460625 -3.38375 7.23375 -4 7 C-3.67 6.01 -3.34 5.02 -3 4 C-2.34 4 -1.68 4 -1 4 C-0.67 2.68 -0.34 1.36 0 0 Z " fill="#B21312" transform="translate(178,170)"/>
<path d="M0 0 C0.66 0 1.32 0 2 0 C2.64834654 1.269553 3.29357815 2.54069706 3.9375 3.8125 C4.29714844 4.52019531 4.65679687 5.22789062 5.02734375 5.95703125 C6 8 6 8 7 11 C5.68 10.34 4.36 9.68 3 9 C3 8.01 3 7.02 3 6 C2.34 6 1.68 6 1 6 C0.67 4.02 0.34 2.04 0 0 Z " fill="#DC1717" transform="translate(419,348)"/>
<path d="M0 0 C1.485 0.99 1.485 0.99 3 2 C3 2.99 3 3.98 3 5 C3.66 5 4.32 5 5 5 C5 5.99 5 6.98 5 8 C5.66 8 6.32 8 7 8 C6.67 8.99 6.34 9.98 6 11 C5.34 11 4.68 11 4 11 C3.32591692 9.73308493 2.66099503 8.46129251 2 7.1875 C1.62875 6.47980469 1.2575 5.77210938 0.875 5.04296875 C0 3 0 3 0 0 Z " fill="#D81617" transform="translate(393,304)"/>
<path d="M0 0 C0.66 0 1.32 0 2 0 C1.46968862 4.5076467 -0.25221116 7.41954788 -3 11 C-3.66 11 -4.32 11 -5 11 C-5 10.01 -5 9.02 -5 8 C-4.34 8 -3.68 8 -3 8 C-3 7.01 -3 6.02 -3 5 C-2.34 5 -1.68 5 -1 5 C-0.67 3.35 -0.34 1.7 0 0 Z " fill="#E11717" transform="translate(112,313)"/>
<path d="M0 0 C2.15377564 2.62198774 3.40072174 4.64404172 4 8 C2.68 8.33 1.36 8.66 0 9 C0 8.01 0 7.02 0 6 C-0.66 6 -1.32 6 -2 6 C-1.34 4.02 -0.68 2.04 0 0 Z " fill="#B91313" transform="translate(416,308)"/>
<path d="M0 0 C1 3 1 3 0.07421875 5.04296875 C-0.61220703 6.10451172 -0.61220703 6.10451172 -1.3125 7.1875 C-1.76238281 7.90292969 -2.21226562 8.61835938 -2.67578125 9.35546875 C-3.11277344 9.89816406 -3.54976562 10.44085938 -4 11 C-4.66 11 -5.32 11 -6 11 C-6 10.01 -6 9.02 -6 8 C-5.34 8 -4.68 8 -4 8 C-4 7.01 -4 6.02 -4 5 C-3.34 5 -2.68 5 -2 5 C-1.855625 4.360625 -1.71125 3.72125 -1.5625 3.0625 C-1 1 -1 1 0 0 Z " fill="#DE1817" transform="translate(167,222)"/>
<path d="M0 0 C2.8125 -0.3125 2.8125 -0.3125 6 0 C7.9375 2.3125 7.9375 2.3125 9 5 C8.67 5.99 8.34 6.98 8 8 C7.608125 7.195625 7.21625 6.39125 6.8125 5.5625 C5.23051809 2.76935262 5.23051809 2.76935262 2.3125 2.1875 C1.1678125 2.0946875 1.1678125 2.0946875 0 2 C0 1.34 0 0.68 0 0 Z " fill="#DD1617" transform="translate(236,170)"/>
<path d="M0 0 C4 4.625 4 4.625 4 8 C3.01 8.33 2.02 8.66 1 9 C1 8.34 1 7.68 1 7 C0.34 6.67 -0.32 6.34 -1 6 C-0.67 4.02 -0.34 2.04 0 0 Z " fill="#B91314" transform="translate(311,132)"/>
<path d="M0 0 C0.66 0 1.32 0 2 0 C1.46884894 4.51478398 -0.36620292 7.34666857 -3 11 C-4 8 -4 8 -3 5 C-2.34 5 -1.68 5 -1 5 C-0.67 3.35 -0.34 1.7 0 0 Z " fill="#DC1716" transform="translate(138,269)"/>
<path d="M0 0 C2.10827055 3.16240582 2.33817465 4.50657469 2.625 8.1875 C2.69976562 9.08855469 2.77453125 9.98960937 2.8515625 10.91796875 C2.90054688 11.60503906 2.94953125 12.29210937 3 13 C2.34 13 1.68 13 1 13 C-0.10228696 8.59085217 -0.07654536 4.51617599 0 0 Z " fill="#DB1617" transform="translate(201,234)"/>
<path d="M0 0 C0.66 0 1.32 0 2 0 C1.46968862 4.5076467 -0.25221116 7.41954788 -3 11 C-3.66 11 -4.32 11 -5 11 C-3.55049545 7.2089881 -1.84827434 3.6125362 0 0 Z " fill="#E11817" transform="translate(175,207)"/>
<path d="M0 0 C2.52588702 2.36292656 3.88820837 3.66462511 5 7 C4.34 7 3.68 7 3 7 C3 7.66 3 8.32 3 9 C2.34 9 1.68 9 1 9 C1 8.01 1 7.02 1 6 C0.34 5.67 -0.32 5.34 -1 5 C-0.34 4.01 0.32 3.02 1 2 C0.34 1.67 -0.32 1.34 -1 1 C-0.67 0.67 -0.34 0.34 0 0 Z " fill="#B91314" transform="translate(298,111)"/>
<path d="M0 0 C0.99 0.495 0.99 0.495 2 1 C2 1.66 2 2.32 2 3 C2.66 3 3.32 3 4 3 C4.33 2.01 4.66 1.02 5 0 C5.25 6.625 5.25 6.625 3 10 C2.01 6.7 1.02 3.4 0 0 Z " fill="#B11212" transform="translate(202,247)"/>
<path d="M0 0 C1.32 1.65 2.64 3.3 4 5 C3 7 3 7 0 9 C0 7.68 0 6.36 0 5 C-0.66 4.67 -1.32 4.34 -2 4 C-1.34 2.68 -0.68 1.36 0 0 Z " fill="#B01112" transform="translate(376,241)"/>
<path d="M0 0 C1 3 1 3 0.22265625 4.82421875 C-0.8515625 6.54947917 -1.92578125 8.27473958 -3 10 C-3.66 10 -4.32 10 -5 10 C-4.49701212 5.59885603 -2.91227269 3.28804981 0 0 Z " fill="#DC1616" transform="translate(186,190)"/>
<path d="M0 0 C1 3 1 3 0.07421875 5.04296875 C-0.61220703 6.10451172 -0.61220703 6.10451172 -1.3125 7.1875 C-1.76238281 7.90292969 -2.21226562 8.61835938 -2.67578125 9.35546875 C-3.11277344 9.89816406 -3.54976562 10.44085938 -4 11 C-4.66 11 -5.32 11 -6 11 C-4.80100302 7.9168649 -3.52299523 4.93720508 -2 2 C-1.34 2 -0.68 2 0 2 C0 1.34 0 0.68 0 0 Z " fill="#DF1716" transform="translate(193,178)"/>
<path d="M0 0 C1.485 0.99 1.485 0.99 3 2 C3 2.99 3 3.98 3 5 C3.66 5 4.32 5 5 5 C5.66 6.65 6.32 8.3 7 10 C6.01 10 5.02 10 4 10 C0 3.375 0 3.375 0 0 Z " fill="#DF1616" transform="translate(372,269)"/>
<path d="M0 0 C2.64 0.33 5.28 0.66 8 1 C8.33 2.32 8.66 3.64 9 5 C5.22454612 3.90931332 2.52956528 3.0916909 0 0 Z " fill="#A31010" transform="translate(278,350)"/>
<path d="M0 0 C1 3 1 3 0.22265625 4.82421875 C-0.8515625 6.54947917 -1.92578125 8.27473958 -3 10 C-3.66 10 -4.32 10 -5 10 C-4.67 8.35 -4.34 6.7 -4 5 C-3.34 5 -2.68 5 -2 5 C-1.7834375 4.0409375 -1.7834375 4.0409375 -1.5625 3.0625 C-1 1 -1 1 0 0 Z " fill="#DE1616" transform="translate(132,281)"/>
<path d="M0 0 C0.33 0.99 0.66 1.98 1 3 C0.00390625 4.82421875 0.00390625 4.82421875 -1.4375 6.6875 C-1.91058594 7.31011719 -2.38367188 7.93273437 -2.87109375 8.57421875 C-3.24363281 9.04472656 -3.61617187 9.51523438 -4 10 C-4.33 9.34 -4.66 8.68 -5 8 C-4.2578125 6.30859375 -4.2578125 6.30859375 -3.125 4.4375 C-2.75632813 3.81746094 -2.38765625 3.19742188 -2.0078125 2.55859375 C-1 1 -1 1 0 0 Z " fill="#DC1717" transform="translate(160,234)"/>
<path d="M0 0 C0.66 0 1.32 0 2 0 C5 5.625 5 5.625 5 9 C4.34 9 3.68 9 3 9 C0.56839395 5.63316085 0 4.26649636 0 0 Z " fill="#DD1616" transform="translate(288,127)"/>
<path d="M0 0 C3.05882701 1.52941351 3.68951234 3.94219546 5 7 C4.67 7.66 4.34 8.32 4 9 C2.68 8.34 1.36 7.68 0 7 C0 4.69 0 2.38 0 0 Z " fill="#A71111" transform="translate(408,295)"/>
<path d="M0 0 C1.485 0.99 1.485 0.99 3 2 C3 2.99 3 3.98 3 5 C3.66 5 4.32 5 5 5 C5 5.99 5 6.98 5 8 C3.0625 7.375 3.0625 7.375 1 6 C0.25 2.875 0.25 2.875 0 0 Z " fill="#DD1516" transform="translate(358,245)"/>
<path d="M0 0 C0.66 0 1.32 0 2 0 C2.33 2.97 2.66 5.94 3 9 C2.34 9 1.68 9 1 9 C0.67 6.03 0.34 3.06 0 0 Z " fill="#DD1515" transform="translate(206,254)"/>
<path d="M0 0 C0.66 0.99 1.32 1.98 2 3 C1.34 3 0.68 3 0 3 C0 4.65 0 6.3 0 8 C-1.32 7.67 -2.64 7.34 -4 7 C-2.68 4.69 -1.36 2.38 0 0 Z " fill="#B31212" transform="translate(112,281)"/>
<path d="M0 0 C4 4.625 4 4.625 4 8 C3.01 7.01 2.02 6.02 1 5 C0.01 5.495 0.01 5.495 -1 6 C-0.67 4.02 -0.34 2.04 0 0 Z " fill="#B21312" transform="translate(290,97)"/>
<path d="M0 0 C0.33 0.66 0.66 1.32 1 2 C1.66 2 2.32 2 3 2 C3.33 3.98 3.66 5.96 4 8 C3.34 8 2.68 8 2 8 C0.23537317 4.91190305 0 3.76687864 0 0 Z " fill="#DB1515" transform="translate(381,283)"/>
<path d="M0 0 C1.9375 0.75 1.9375 0.75 4 2 C4.75 4.125 4.75 4.125 5 6 C3.68 5.67 2.36 5.34 1 5 C0.67 3.35 0.34 1.7 0 0 Z " fill="#B61313" transform="translate(256,279)"/>
<path d="M0 0 C1.70884005 1.62339805 3.37446717 3.29319053 5 5 C5 5.66 5 6.32 5 7 C4.01 7 3.02 7 2 7 C0.5393715 4.35261084 0 3.10551666 0 0 Z " fill="#DE1617" transform="translate(297,143)"/>
<path d="M0 0 C2.31 0 4.62 0 7 0 C7 0.33 7 0.66 7 1 C4.69 1 2.38 1 0 1 C0 0.67 0 0.34 0 0 Z " fill="#000000" transform="translate(288,0)"/>
<path d="M0 0 C2.31 0 4.62 0 7 0 C7 0.33 7 0.66 7 1 C4.69 1 2.38 1 0 1 C0 0.67 0 0.34 0 0 Z " fill="#000000" transform="translate(217,0)"/>
<path d="M0 0 C1.98 0 3.96 0 6 0 C6 0.33 6 0.66 6 1 C4.02 1 2.04 1 0 1 C0 0.67 0 0.34 0 0 Z " fill="#000000" transform="translate(292,511)"/>
<path d="M0 0 C1.98 0 3.96 0 6 0 C6 0.33 6 0.66 6 1 C4.02 1 2.04 1 0 1 C0 0.67 0 0.34 0 0 Z " fill="#000000" transform="translate(214,511)"/>
<path d="M0 0 C1.98 0 3.96 0 6 0 C6 0.33 6 0.66 6 1 C4.02 1 2.04 1 0 1 C0 0.67 0 0.34 0 0 Z " fill="#000000" transform="translate(211,1)"/>
<path d="M0 0 C1.65 0 3.3 0 5 0 C5 0.33 5 0.66 5 1 C3.35 1 1.7 1 0 1 C0 0.67 0 0.34 0 0 Z " fill="#000000" transform="translate(299,510)"/>
<path d="M0 0 C1.65 0 3.3 0 5 0 C5 0.33 5 0.66 5 1 C3.35 1 1.7 1 0 1 C0 0.67 0 0.34 0 0 Z " fill="#000000" transform="translate(209,510)"/>
<path d="M0 0 C1.65 0 3.3 0 5 0 C5 0.33 5 0.66 5 1 C3.35 1 1.7 1 0 1 C0 0.67 0 0.34 0 0 Z " fill="#000000" transform="translate(304,509)"/>
<path d="M0 0 C1.65 0 3.3 0 5 0 C5 0.33 5 0.66 5 1 C3.35 1 1.7 1 0 1 C0 0.67 0 0.34 0 0 Z " fill="#000000" transform="translate(309,508)"/>
<path d="M0 0 C1.65 0 3.3 0 5 0 C5 0.33 5 0.66 5 1 C3.35 1 1.7 1 0 1 C0 0.67 0 0.34 0 0 Z " fill="#000000" transform="translate(201,3)"/>
<path d="M0 0 C1.65 0 3.3 0 5 0 C5 0.33 5 0.66 5 1 C3.35 1 1.7 1 0 1 C0 0.67 0 0.34 0 0 Z " fill="#000000" transform="translate(206,2)"/>
<path d="M0 0 C1.65 0 3.3 0 5 0 C5 0.33 5 0.66 5 1 C3.35 1 1.7 1 0 1 C0 0.67 0 0.34 0 0 Z " fill="#000000" transform="translate(296,1)"/>
<path d="M0 0 C4 1 4 1 4 1 Z " fill="#000000" transform="translate(204,509)"/>
<path d="M0 0 C4 1 4 1 4 1 Z " fill="#000000" transform="translate(199,508)"/>
<path d="M0 0 C4 1 4 1 4 1 Z " fill="#000000" transform="translate(314,507)"/>
<path d="M0 0 C4 1 4 1 4 1 Z " fill="#000000" transform="translate(195,507)"/>
<path d="M0 0 C4 1 4 1 4 1 Z " fill="#000000" transform="translate(318,506)"/>
<path d="M0 0 C4 1 4 1 4 1 Z " fill="#000000" transform="translate(322,505)"/>
<path d="M0 0 C4 1 4 1 4 1 Z " fill="#000000" transform="translate(187,505)"/>
<path d="M0 0 C4 1 4 1 4 1 Z " fill="#000000" transform="translate(183,504)"/>
<path d="M0 0 C4 1 4 1 4 1 Z " fill="#000000" transform="translate(332,502)"/>
<path d="M0 0 C4 1 4 1 4 1 Z " fill="#000000" transform="translate(320,6)"/>
<path d="M0 0 C4 1 4 1 4 1 Z " fill="#000000" transform="translate(189,6)"/>
<path d="M0 0 C4 1 4 1 4 1 Z " fill="#000000" transform="translate(193,5)"/>
<path d="M0 0 C4 1 4 1 4 1 Z " fill="#000000" transform="translate(312,4)"/>
<path d="M0 0 C4 1 4 1 4 1 Z " fill="#000000" transform="translate(197,4)"/>
<path d="M0 0 C4 1 4 1 4 1 Z " fill="#000000" transform="translate(307,3)"/>
<path d="M0 0 C4 1 4 1 4 1 Z " fill="#000000" transform="translate(302,2)"/>
<path d="M0 0 C3 1 3 1 3 1 Z " fill="#000000" transform="translate(191,506)"/>
<path d="M0 0 C3 1 3 1 3 1 Z " fill="#000000" transform="translate(326,504)"/>
<path d="M0 0 C3 1 3 1 3 1 Z " fill="#000000" transform="translate(329,503)"/>
<path d="M0 0 C3 1 3 1 3 1 Z " fill="#000000" transform="translate(177,502)"/>
<path d="M0 0 C3 1 3 1 3 1 Z " fill="#000000" transform="translate(174,501)"/>
<path d="M0 0 C3 1 3 1 3 1 Z " fill="#000000" transform="translate(341,499)"/>
<path d="M0 0 C3 1 3 1 3 1 Z " fill="#000000" transform="translate(169,499)"/>
<path d="M0 0 C3 1 3 1 3 1 Z " fill="#000000" transform="translate(346,497)"/>
<path d="M0 0 C3 1 3 1 3 1 Z " fill="#000000" transform="translate(163,497)"/>
<path d="M0 0 C3 1 3 1 3 1 Z " fill="#000000" transform="translate(156,494)"/>
<path d="M0 0 C3 1 3 1 3 1 Z " fill="#000000" transform="translate(356,493)"/>
<path d="M0 0 C3 1 3 1 3 1 Z " fill="#000000" transform="translate(149,491)"/>
<path d="" fill="#000000" transform="translate(0,0)"/>
<path d="" fill="#000000" transform="translate(0,0)"/>
<path d="M0 0 C3 1 3 1 3 1 Z " fill="#000000" transform="translate(150,20)"/>
<path d="M0 0 C3 1 3 1 3 1 Z " fill="#000000" transform="translate(355,18)"/>
<path d="M0 0 C3 1 3 1 3 1 Z " fill="#000000" transform="translate(157,17)"/>
<path d="M0 0 C3 1 3 1 3 1 Z " fill="#000000" transform="translate(350,16)"/>
<path d="M0 0 C3 1 3 1 3 1 Z " fill="#000000" transform="translate(162,15)"/>
<path d="M0 0 C3 1 3 1 3 1 Z " fill="#000000" transform="translate(167,13)"/>
<path d="M0 0 C3 1 3 1 3 1 Z " fill="#000000" transform="translate(339,12)"/>
<path d="M0 0 C3 1 3 1 3 1 Z " fill="#000000" transform="translate(170,12)"/>
<path d="M0 0 C3 1 3 1 3 1 Z " fill="#000000" transform="translate(334,10)"/>
<path d="M0 0 C3 1 3 1 3 1 Z " fill="#000000" transform="translate(176,10)"/>
<path d="M0 0 C3 1 3 1 3 1 Z " fill="#000000" transform="translate(179,9)"/>
<path d="M0 0 C3 1 3 1 3 1 Z " fill="#000000" transform="translate(327,8)"/>
<path d="M0 0 C3 1 3 1 3 1 Z " fill="#000000" transform="translate(182,8)"/>
<path d="M0 0 C3 1 3 1 3 1 Z " fill="#000000" transform="translate(324,7)"/>
<path d="M0 0 C3 1 3 1 3 1 Z " fill="#000000" transform="translate(186,7)"/>
<path d="M0 0 C3 1 3 1 3 1 Z " fill="#000000" transform="translate(316,5)"/>
<path d="M0 0 C2 1 2 1 2 1 Z " fill="#000000" transform="translate(181,503)"/>
<path d="M0 0 C2 1 2 1 2 1 Z " fill="#000000" transform="translate(336,501)"/>
<path d="M0 0 C2 1 2 1 2 1 Z " fill="#000000" transform="translate(339,500)"/>
<path d="M0 0 C2 1 2 1 2 1 Z " fill="#000000" transform="translate(172,500)"/>
<path d="M0 0 C2 1 2 1 2 1 Z " fill="#000000" transform="translate(344,498)"/>
<path d="M0 0 C2 1 2 1 2 1 Z " fill="#000000" transform="translate(166,498)"/>
<path d="M0 0 C2 1 2 1 2 1 Z " fill="#000000" transform="translate(350,496)"/>
<path d="M0 0 C2 1 2 1 2 1 Z " fill="#000000" transform="translate(161,496)"/>
<path d="M0 0 C2 1 2 1 2 1 Z " fill="#000000" transform="translate(352,495)"/>
<path d="M0 0 C2 1 2 1 2 1 Z " fill="#000000" transform="translate(159,495)"/>
<path d="M0 0 C2 1 2 1 2 1 Z " fill="#000000" transform="translate(354,494)"/>
<path d="M0 0 C2 1 2 1 2 1 Z " fill="#000000" transform="translate(154,493)"/>
<path d="M0 0 C2 1 2 1 2 1 Z " fill="#000000" transform="translate(359,492)"/>
<path d="M0 0 C2 1 2 1 2 1 Z " fill="#000000" transform="translate(152,492)"/>
<path d="M0 0 C2 1 2 1 2 1 Z " fill="#000000" transform="translate(361,491)"/>
<path d="M0 0 C2 1 2 1 2 1 Z " fill="#000000" transform="translate(363,490)"/>
<path d="M0 0 C2 1 2 1 2 1 Z " fill="#000000" transform="translate(147,490)"/>
<path d="M0 0 C2 1 2 1 2 1 Z " fill="#000000" transform="translate(365,489)"/>
<path d="M0 0 C2 1 2 1 2 1 Z " fill="#000000" transform="translate(145,489)"/>
<path d="M0 0 C2 1 2 1 2 1 Z " fill="#000000" transform="translate(367,488)"/>
<path d="M0 0 C2 1 2 1 2 1 Z " fill="#000000" transform="translate(143,488)"/>
<path d="M0 0 C2 1 2 1 2 1 Z " fill="#000000" transform="translate(369,487)"/>
<path d="M0 0 C2 1 2 1 2 1 Z " fill="#000000" transform="translate(141,487)"/>
<path d="M0 0 C2 1 2 1 2 1 Z " fill="#000000" transform="translate(371,486)"/>
<path d="M0 0 C2 1 2 1 2 1 Z " fill="#000000" transform="translate(139,486)"/>
<path d="M0 0 C2 1 2 1 2 1 Z " fill="#000000" transform="translate(373,485)"/>
<path d="M0 0 C2 1 2 1 2 1 Z " fill="#000000" transform="translate(137,485)"/>
<path d="M0 0 C2 1 2 1 2 1 Z " fill="#000000" transform="translate(375,484)"/>
<path d="M0 0 C2 1 2 1 2 1 Z " fill="#000000" transform="translate(135,484)"/>
<path d="M0 0 C2 1 2 1 2 1 Z " fill="#000000" transform="translate(377,483)"/>
<path d="M0 0 C2 1 2 1 2 1 Z " fill="#000000" transform="translate(133,483)"/>
<path d="M0 0 C2 1 2 1 2 1 Z " fill="#000000" transform="translate(379,482)"/>
<path d="M0 0 C2 1 2 1 2 1 Z " fill="#000000" transform="translate(381,481)"/>
<path d="M0 0 C2 1 2 1 2 1 Z " fill="#000000" transform="translate(130,481)"/>
<path d="M0 0 C2 1 2 1 2 1 Z " fill="#000000" transform="translate(128,480)"/>
<path d="M0 0 C2 1 2 1 2 1 Z " fill="#000000" transform="translate(384,479)"/>
<path d="M0 0 C2 1 2 1 2 1 Z " fill="#000000" transform="translate(126,479)"/>
<path d="M0 0 C2 1 2 1 2 1 Z " fill="#000000" transform="translate(386,478)"/>
<path d="M0 0 C2 1 2 1 2 1 Z " fill="#000000" transform="translate(388,477)"/>
<path d="M0 0 C2 1 2 1 2 1 Z " fill="#000000" transform="translate(123,477)"/>
<path d="M0 0 C2 1 2 1 2 1 Z " fill="#000000" transform="translate(121,476)"/>
<path d="M0 0 C2 1 2 1 2 1 Z " fill="#000000" transform="translate(391,475)"/>
<path d="M0 0 C2 1 2 1 2 1 Z " fill="#000000" transform="translate(118,474)"/>
<path d="M0 0 C2 1 2 1 2 1 Z " fill="#000000" transform="translate(394,473)"/>
<path d="M0 0 C2 1 2 1 2 1 Z " fill="#000000" transform="translate(115,472)"/>
<path d="M0 0 C2 1 2 1 2 1 Z " fill="#000000" transform="translate(397,471)"/>
<path d="M0 0 C2 1 2 1 2 1 Z " fill="#000000" transform="translate(113,471)"/>
<path d="M0 0 C2 1 2 1 2 1 Z " fill="#000000" transform="translate(400,469)"/>
<path d="M0 0 C2 1 2 1 2 1 Z " fill="#000000" transform="translate(109,468)"/>
<path d="M0 0 C2 1 2 1 2 1 Z " fill="#000000" transform="translate(403,467)"/>
<path d="" fill="#000000" transform="translate(0,0)"/>
<path d="" fill="#000000" transform="translate(0,0)"/>
<path d="" fill="#000000" transform="translate(0,0)"/>
<path d="" fill="#000000" transform="translate(0,0)"/>
<path d="" fill="#000000" transform="translate(0,0)"/>
<path d="" fill="#000000" transform="translate(0,0)"/>
<path d="" fill="#000000" transform="translate(0,0)"/>
<path d="" fill="#000000" transform="translate(0,0)"/>
<path d="" fill="#000000" transform="translate(0,0)"/>
<path d="" fill="#000000" transform="translate(0,0)"/>
<path d="" fill="#000000" transform="translate(0,0)"/>
<path d="" fill="#000000" transform="translate(0,0)"/>
<path d="" fill="#000000" transform="translate(0,0)"/>
<path d="" fill="#000000" transform="translate(0,0)"/>
<path d="" fill="#000000" transform="translate(0,0)"/>
<path d="" fill="#000000" transform="translate(0,0)"/>
<path d="" fill="#000000" transform="translate(0,0)"/>
<path d="" fill="#000000" transform="translate(0,0)"/>
<path d="" fill="#000000" transform="translate(0,0)"/>
<path d="M0 0 C2 1 2 1 2 1 Z " fill="#000000" transform="translate(114,40)"/>
<path d="M0 0 C2 1 2 1 2 1 Z " fill="#000000" transform="translate(390,36)"/>
<path d="M0 0 C2 1 2 1 2 1 Z " fill="#000000" transform="translate(120,36)"/>
<path d="M0 0 C2 1 2 1 2 1 Z " fill="#000000" transform="translate(122,35)"/>
<path d="M0 0 C2 1 2 1 2 1 Z " fill="#000000" transform="translate(387,34)"/>
<path d="M0 0 C2 1 2 1 2 1 Z " fill="#000000" transform="translate(385,33)"/>
<path d="M0 0 C2 1 2 1 2 1 Z " fill="#000000" transform="translate(125,33)"/>
<path d="M0 0 C2 1 2 1 2 1 Z " fill="#000000" transform="translate(127,32)"/>
<path d="M0 0 C2 1 2 1 2 1 Z " fill="#000000" transform="translate(382,31)"/>
<path d="M0 0 C2 1 2 1 2 1 Z " fill="#000000" transform="translate(129,31)"/>
<path d="M0 0 C2 1 2 1 2 1 Z " fill="#000000" transform="translate(380,30)"/>
<path d="M0 0 C2 1 2 1 2 1 Z " fill="#000000" transform="translate(378,29)"/>
<path d="M0 0 C2 1 2 1 2 1 Z " fill="#000000" transform="translate(132,29)"/>
<path d="M0 0 C2 1 2 1 2 1 Z " fill="#000000" transform="translate(376,28)"/>
<path d="M0 0 C2 1 2 1 2 1 Z " fill="#000000" transform="translate(134,28)"/>
<path d="M0 0 C2 1 2 1 2 1 Z " fill="#000000" transform="translate(374,27)"/>
<path d="M0 0 C2 1 2 1 2 1 Z " fill="#000000" transform="translate(136,27)"/>
<path d="M0 0 C2 1 2 1 2 1 Z " fill="#000000" transform="translate(372,26)"/>
<path d="M0 0 C2 1 2 1 2 1 Z " fill="#000000" transform="translate(138,26)"/>
<path d="M0 0 C2 1 2 1 2 1 Z " fill="#000000" transform="translate(370,25)"/>
<path d="M0 0 C2 1 2 1 2 1 Z " fill="#000000" transform="translate(140,25)"/>
<path d="M0 0 C2 1 2 1 2 1 Z " fill="#000000" transform="translate(368,24)"/>
<path d="M0 0 C2 1 2 1 2 1 Z " fill="#000000" transform="translate(142,24)"/>
<path d="M0 0 C2 1 2 1 2 1 Z " fill="#000000" transform="translate(366,23)"/>
<path d="M0 0 C2 1 2 1 2 1 Z " fill="#000000" transform="translate(144,23)"/>
<path d="M0 0 C2 1 2 1 2 1 Z " fill="#000000" transform="translate(364,22)"/>
<path d="M0 0 C2 1 2 1 2 1 Z " fill="#000000" transform="translate(146,22)"/>
<path d="M0 0 C2 1 2 1 2 1 Z " fill="#000000" transform="translate(362,21)"/>
<path d="M0 0 C2 1 2 1 2 1 Z " fill="#000000" transform="translate(148,21)"/>
<path d="M0 0 C2 1 2 1 2 1 Z " fill="#000000" transform="translate(360,20)"/>
<path d="M0 0 C2 1 2 1 2 1 Z " fill="#000000" transform="translate(358,19)"/>
<path d="M0 0 C2 1 2 1 2 1 Z " fill="#000000" transform="translate(153,19)"/>
<path d="M0 0 C2 1 2 1 2 1 Z " fill="#000000" transform="translate(155,18)"/>
<path d="M0 0 C2 1 2 1 2 1 Z " fill="#000000" transform="translate(353,17)"/>
<path d="M0 0 C2 1 2 1 2 1 Z " fill="#000000" transform="translate(160,16)"/>
<path d="M0 0 C2 1 2 1 2 1 Z " fill="#000000" transform="translate(348,15)"/>
<path d="M0 0 C2 1 2 1 2 1 Z " fill="#000000" transform="translate(346,14)"/>
<path d="M0 0 C2 1 2 1 2 1 Z " fill="#000000" transform="translate(165,14)"/>
<path d="M0 0 C2 1 2 1 2 1 Z " fill="#000000" transform="translate(343,13)"/>
<path d="M0 0 C2 1 2 1 2 1 Z " fill="#000000" transform="translate(337,11)"/>
<path d="M0 0 C2 1 2 1 2 1 Z " fill="#000000" transform="translate(173,11)"/>
<path d="M0 0 C2 1 2 1 2 1 Z " fill="#000000" transform="translate(331,9)"/>
<path d="" fill="#000000" transform="translate(0,0)"/>
<path d="" fill="#000000" transform="translate(0,0)"/>
<path d="" fill="#000000" transform="translate(0,0)"/>
<path d="" fill="#000000" transform="translate(0,0)"/>
<path d="" fill="#000000" transform="translate(0,0)"/>
<path d="" fill="#000000" transform="translate(0,0)"/>
<path d="" fill="#000000" transform="translate(0,0)"/>
<path d="" fill="#000000" transform="translate(0,0)"/>
<path d="" fill="#000000" transform="translate(0,0)"/>
<path d="" fill="#000000" transform="translate(0,0)"/>
<path d="" fill="#000000" transform="translate(0,0)"/>
<path d="" fill="#000000" transform="translate(0,0)"/>
<path d="" fill="#000000" transform="translate(0,0)"/>
<path d="" fill="#000000" transform="translate(0,0)"/>
<path d="" fill="#000000" transform="translate(0,0)"/>
<path d="" fill="#000000" transform="translate(0,0)"/>
<path d="" fill="#000000" transform="translate(0,0)"/>
<path d="" fill="#000000" transform="translate(0,0)"/>
<path d="" fill="#000000" transform="translate(0,0)"/>
<path d="" fill="#000000" transform="translate(0,0)"/>
<path d="" fill="#000000" transform="translate(0,0)"/>
<path d="" fill="#000000" transform="translate(0,0)"/>
<path d="" fill="#000000" transform="translate(0,0)"/>
<path d="" fill="#000000" transform="translate(0,0)"/>
<path d="" fill="#000000" transform="translate(0,0)"/>
<path d="" fill="#000000" transform="translate(0,0)"/>
<path d="" fill="#000000" transform="translate(0,0)"/>
<path d="" fill="#000000" transform="translate(0,0)"/>
<path d="" fill="#000000" transform="translate(0,0)"/>
<path d="" fill="#000000" transform="translate(0,0)"/>
<path d="" fill="#000000" transform="translate(0,0)"/>
<path d="" fill="#000000" transform="translate(0,0)"/>
<path d="" fill="#000000" transform="translate(0,0)"/>
<path d="" fill="#000000" transform="translate(0,0)"/>
<path d="" fill="#000000" transform="translate(0,0)"/>
<path d="" fill="#000000" transform="translate(0,0)"/>
<path d="" fill="#000000" transform="translate(0,0)"/>
<path d="" fill="#000000" transform="translate(0,0)"/>
<path d="" fill="#000000" transform="translate(0,0)"/>
<path d="" fill="#000000" transform="translate(0,0)"/>
<path d="" fill="#000000" transform="translate(0,0)"/>
<path d="" fill="#000000" transform="translate(0,0)"/>
<path d="" fill="#000000" transform="translate(0,0)"/>
<path d="" fill="#000000" transform="translate(0,0)"/>
<path d="" fill="#000000" transform="translate(0,0)"/>
<path d="" fill="#000000" transform="translate(0,0)"/>
<path d="" fill="#000000" transform="translate(0,0)"/>
<path d="" fill="#000000" transform="translate(0,0)"/>
<path d="" fill="#000000" transform="translate(0,0)"/>
<path d="" fill="#000000" transform="translate(0,0)"/>
<path d="" fill="#000000" transform="translate(0,0)"/>
<path d="" fill="#000000" transform="translate(0,0)"/>
<path d="" fill="#000000" transform="translate(0,0)"/>
<path d="" fill="#000000" transform="translate(0,0)"/>
<path d="" fill="#000000" transform="translate(0,0)"/>
<path d="" fill="#000000" transform="translate(0,0)"/>
<path d="" fill="#000000" transform="translate(0,0)"/>
<path d="" fill="#000000" transform="translate(0,0)"/>
<path d="" fill="#000000" transform="translate(0,0)"/>
<path d="" fill="#000000" transform="translate(0,0)"/>
<path d="" fill="#000000" transform="translate(0,0)"/>
<path d="" fill="#000000" transform="translate(0,0)"/>
<path d="" fill="#000000" transform="translate(0,0)"/>
<path d="" fill="#000000" transform="translate(0,0)"/>
<path d="" fill="#000000" transform="translate(0,0)"/>
<path d="" fill="#000000" transform="translate(0,0)"/>
<path d="" fill="#000000" transform="translate(0,0)"/>
<path d="" fill="#000000" transform="translate(0,0)"/>
<path d="" fill="#000000" transform="translate(0,0)"/>
<path d="" fill="#000000" transform="translate(0,0)"/>
<path d="" fill="#000000" transform="translate(0,0)"/>
<path d="" fill="#000000" transform="translate(0,0)"/>
<path d="" fill="#000000" transform="translate(0,0)"/>
<path d="" fill="#000000" transform="translate(0,0)"/>
<path d="" fill="#000000" transform="translate(0,0)"/>
<path d="" fill="#000000" transform="translate(0,0)"/>
<path d="" fill="#000000" transform="translate(0,0)"/>
<path d="" fill="#000000" transform="translate(0,0)"/>
<path d="" fill="#000000" transform="translate(0,0)"/>
<path d="" fill="#000000" transform="translate(0,0)"/>
<path d="" fill="#000000" transform="translate(0,0)"/>
<path d="" fill="#000000" transform="translate(0,0)"/>
<path d="" fill="#000000" transform="translate(0,0)"/>
<path d="" fill="#000000" transform="translate(0,0)"/>
<path d="" fill="#000000" transform="translate(0,0)"/>
<path d="" fill="#000000" transform="translate(0,0)"/>
<path d="" fill="#000000" transform="translate(0,0)"/>
<path d="" fill="#000000" transform="translate(0,0)"/>
<path d="" fill="#000000" transform="translate(0,0)"/>
<path d="" fill="#000000" transform="translate(0,0)"/>
<path d="" fill="#000000" transform="translate(0,0)"/>
<path d="" fill="#000000" transform="translate(0,0)"/>
<path d="" fill="#000000" transform="translate(0,0)"/>
<path d="" fill="#000000" transform="translate(0,0)"/>
<path d="" fill="#000000" transform="translate(0,0)"/>
<path d="" fill="#000000" transform="translate(0,0)"/>
<path d="" fill="#000000" transform="translate(0,0)"/>
<path d="" fill="#000000" transform="translate(0,0)"/>
<path d="" fill="#000000" transform="translate(0,0)"/>
<path d="" fill="#000000" transform="translate(0,0)"/>
<path d="" fill="#000000" transform="translate(0,0)"/>
<path d="" fill="#000000" transform="translate(0,0)"/>
<path d="" fill="#000000" transform="translate(0,0)"/>
<path d="" fill="#000000" transform="translate(0,0)"/>
<path d="" fill="#000000" transform="translate(0,0)"/>
<path d="" fill="#000000" transform="translate(0,0)"/>
<path d="" fill="#000000" transform="translate(0,0)"/>
<path d="" fill="#000000" transform="translate(0,0)"/>
<path d="" fill="#000000" transform="translate(0,0)"/>
<path d="" fill="#000000" transform="translate(0,0)"/>
<path d="" fill="#000000" transform="translate(0,0)"/>
<path d="" fill="#000000" transform="translate(0,0)"/>
<path d="" fill="#000000" transform="translate(0,0)"/>
<path d="" fill="#000000" transform="translate(0,0)"/>
<path d="" fill="#000000" transform="translate(0,0)"/>
<path d="" fill="#000000" transform="translate(0,0)"/>
<path d="" fill="#000000" transform="translate(0,0)"/>
<path d="" fill="#000000" transform="translate(0,0)"/>
<path d="" fill="#000000" transform="translate(0,0)"/>
<path d="" fill="#000000" transform="translate(0,0)"/>
<path d="" fill="#000000" transform="translate(0,0)"/>
<path d="" fill="#000000" transform="translate(0,0)"/>
<path d="" fill="#000000" transform="translate(0,0)"/>
<path d="" fill="#000000" transform="translate(0,0)"/>
<path d="" fill="#000000" transform="translate(0,0)"/>
<path d="" fill="#000000" transform="translate(0,0)"/>
<path d="" fill="#000000" transform="translate(0,0)"/>
<path d="" fill="#000000" transform="translate(0,0)"/>
<path d="" fill="#000000" transform="translate(0,0)"/>
<path d="" fill="#000000" transform="translate(0,0)"/>
</svg>
